<svg aria-hidden="true" style="position: absolute; width: 0; height: 0; overflow: hidden;" version="1.1" xmlns="http://www.w3.org/2000/svg" xmlns:xlink="http://www.w3.org/1999/xlink">
<defs>
<symbol id="icon-pilates" viewBox="0 0 512 512">
    <path d="m512 401.734c0-12.172-8.847-22.263-20.64-24.119.032-1.281.022-2.57-.046-3.868-1.416-27.227-24.594-48.112-51.822-46.698l-10.287.534c-12.773.665-24.17 6.16-32.516 14.617-12.449-10.75-43.421-32.31-91.596-32.31l-51.029-.48-9.845-71.242c-1.485-10.006-3.807-19.963-6.902-29.596-.013-.038-.025-.076-.038-.114l-28.122-82.922c-.06-.75-1.066-2.891.38-4.955 4.596-6.556 9.604-11.389 27.583-30.537 12.466-13.225-2.025-34.139-18.681-27.222-.031.013-.062.026-.093.039l-48.19 20.773c-8.436 3.637-12.335 13.016-10.2 20.569l7.334 25.995 13.939 101.298c1.508 10.955 1.374 22.041-.397 32.956l-4.174 18.377c-.268-.083-13.243-4.982-29.688-7.938l-33.437-6.438c-4.05-.779-7.968 1.873-8.749 5.924-.78 4.052 1.872 7.969 5.924 8.749l33.527 6.454c16.916 3.041 28.19 7.656 29.087 7.94l-2.89 12.726c-2.108 9.28-1.879 18.771.465 27.706-11.336-6.39-23.278-12.564-32.533-16.94-.019-.008-.038-.019-.057-.027-4.18-1.975-7.815-3.586-10.582-4.675l-75.074-30.717 4.396-12.8 19.077 3.673c4.054.783 7.969-1.872 8.749-5.923.78-4.052-1.872-7.968-5.923-8.748l-25.378-4.887c-.504-.178-2.724-.159-3.972-2.19-4.196-6.828-6.629-13.333-17.066-37.509-7.197-16.763-32.246-11.646-32.531 6.303-.003.047-.003.091-.003.137l.123 52.441c-.021 9.139 6.914 16.519 14.715 17.549l8.633 1.133c-14.805 13.1-23.471 31.607-23.471 51.633v9.38c0 20.892 9.668 40.146 25.373 53.224h-4.605c-11.452 0-20.768 9.316-20.768 20.768s9.316 20.768 20.768 20.768h470.465c11.451 0 20.768-9.317 20.768-20.768 0-5.09-1.847-9.751-4.897-13.366 3.175-4.211 4.896-9.311 4.896-14.677zm-14.942 0c0 2.801-1.19 5.501-3.597 7.399-.733-.079-1.475-.124-2.229-.124h-9.739c-.503-.413-.706-.564-1.319-1.323 3.741-4.542 6.659-9.739 8.576-15.366 4.662.587 8.308 4.532 8.308 9.414zm-20.665-27.211c.815 15.669-8.904 29.703-23.735 34.486h-32.976c-.54-.203-1.082-.403-1.607-.63l17.806-17.425c1.117-1.093 2.591-1.739 4.153-1.82 11.758-.613 20.827-10.677 20.215-22.435l-1.051-20.202c9.95 5.751 16.573 16.073 17.195 28.026zm-46.413-32.019 10.287-.534c1.254-.065 2.499-.057 3.735.01l1.326 25.496c.183 3.531-2.54 6.553-6.069 6.736-5.197.269-10.108 2.423-13.828 6.063l-19.603 19.183c-4.946-5.663-7.989-12.923-8.4-20.829-.985-18.934 13.618-35.139 32.552-36.125zm-42.11 11.893c-3.84 7.479-5.831 16.026-5.363 25.009.583 11.214 4.858 21.52 11.81 29.603h-16.806c.945-2.69 1.449-5.558 1.449-8.5 0-16.166-14.886-27.063-26.581-25.606l-18.84 2.333c-4.094.507-7.003 4.237-6.496 8.333.508 4.094 4.239 7 8.332 6.496l18.322-2.268c5.727.211 10.32 4.936 10.32 10.713 0 3.363-1.583 6.487-4.207 8.5h-136.14c24.907-7.788 39.874-7.532 76.326-12.565 4.095-.507 7.003-4.237 6.497-8.333s-4.24-6.991-8.332-6.496l-12.456 1.542-43.36-14.94c.4-3.071-.684-21.64 9.807-43.883l52.871.497c44.605-.001 73.015 20.924 82.847 29.565zm-372.928 1.388v-9.38c0-5.77.932-11.381 2.685-16.686 13.72 5.164 35.557 9.806 58.988 9.806 13.076 0 33.516-1.891 50.958-7.043.678.304 1.374.62 2.101.956 1.641 4.043 2.493 8.289 2.518 12.652l.001 9.696c0 3.458-.352 6.856-1.006 10.168-16.972 5.039-39.168 7.317-54.572 7.317-17.937 0-43.871-2.98-61.047-9.479-.405-2.625-.626-5.297-.626-8.007zm132.192 0-.001-9.769c-.008-1.36-.09-2.707-.207-4.049 14.216 7.391 30.283 16.519 40.364 23.591 12.313 11.619 29.24 17.487 46.544 15.531l18.19 6.268c-28.852 4.07-61 16.516-64.959 21.653h-65.308c15.706-13.079 25.377-32.331 25.377-53.225zm82.294-115.499 10.394 75.216c-12.687 25.312-12.112 49.275-12.359 51.036-12.512.09-23.782-5.036-32.018-13.945-9.852-10.657-13.659-24.885-10.444-39.038l10.452-46.018c.033-.147.062-.295.087-.444 2.048-12.462 2.213-25.125.492-37.635l-12.89-93.673 13.519-.573 26.447 77.985c2.839 8.843 4.968 17.981 6.32 27.089zm-49.22-119.33-5.797-20.545c-.215-1.271.465-2.54 1.661-3.054l48.125-20.746c1.902-.749 3.468 1.681 2.051 3.185-17.931 19.107-23.535 24.493-28.946 32.21-1.748 2.494-2.839 5.374-3.266 8.364zm-76.918 201.502c-9.606 1.442-19.132 2.125-26.675 2.125-15.869 0-37.378-2.831-52.35-8.277 4.976-7.298 11.785-13.489 20.043-17.981zm-88.226-46.368-.123-52.38c.079-1.915 3.012-2.581 3.861-.604 9.87 22.845 13.013 31.216 18.065 39.436 1.483 2.414 3.5 4.436 5.849 5.974l-4.506 13.12-21.135-2.774c-1.194-.302-2.014-1.407-2.011-2.772zm6.497 105.272c19.759 5.281 42.557 6.85 55.054 6.85 13.408 0 31.695-1.632 48.001-5.182-7.333 12.312-19.518 21.847-34.448 25.979h-33.202c-15.598-4.317-28.202-14.531-35.405-27.647zm469.671 54.241h-470.464c-3.213 0-5.826-2.614-5.826-5.827 0-3.212 2.613-5.826 5.826-5.826h470.465c3.213 0 5.826 2.614 5.826 5.826-.001 3.214-2.614 5.827-5.827 5.827z"/>
</symbol>
<symbol id="icon-location_on" viewBox="0 0 24 24">
    <path d="M12 11.484q1.031 0 1.758-0.727t0.727-1.758-0.727-1.758-1.758-0.727-1.758 0.727-0.727 1.758 0.727 1.758 1.758 0.727zM12 2.016q2.906 0 4.945 2.039t2.039 4.945q0 1.453-0.727 3.328t-1.758 3.516-2.039 3.070-1.711 2.273l-0.75 0.797q-0.281-0.328-0.75-0.867t-1.688-2.156-2.133-3.141-1.664-3.445-0.75-3.375q0-2.906 2.039-4.945t4.945-2.039z"/>
</symbol>
<symbol id="icon-yoga" viewBox="0 0 512 512">
    <path d="m502 413.745h-54.581c5.299-7.574 8.421-16.779 8.421-26.704 0-23.428-17.523-43.343-40.761-46.325-5.465-.695-10.488 3.168-11.191 8.646-.702 5.478 3.169 10.488 8.647 11.191 13.286 1.704 23.306 13.091 23.306 26.487 0 14.725-11.979 26.704-26.704 26.704h-76.224v-20h24.928c5.522 0 10-4.477 10-10s-4.478-10-10-10h-64.507c-.063 0-.126.005-.189.005l16.615-26.381 13.515 1.734c.432.055.86.082 1.285.082 4.956 0 9.259-3.683 9.906-8.729.702-5.478-3.169-10.488-8.646-11.191l-10.523-1.35 13.663-37.696c12.038-33.213-.026-70.184-29.338-89.904l-12.16-8.181c13.407-12.391 19.948-31.499 15.412-50.397l-2.8-11.668c-6.165-25.689-30.527-42.352-56.086-39.58-8.811-9.844-22.633-14.399-35.785-11.242-19.57 4.697-31.671 24.439-26.975 44.01.149.621.332 1.229.512 1.838-7.082 1.821-13.781 5.461-19.314 10.94l-41.153 40.747c-2.269 2.247-4.08 4.781-5.444 7.483-8.089-5.631-17.907-8.942-28.488-8.942-5.523 0-10 4.477-10 10v79.303l-20.382 111.84c-2.397 13.154.708 26.56 8.518 37.28h-55.477c-5.523 0-10 4.477-10 10s4.477 10 10 10h492c5.522 0 10-4.477 10-10s-4.478-10-10-10zm-191.845-130.341-16.766 46.258-48.011-9.532c10.546-16.702 13.296-37.543 6.751-56.869l-10.135-29.926c7.923-.652 15.436-4.092 21.109-9.79 4.829-4.849 7.995-10.905 9.229-17.484l16.124 10.848c21.68 14.585 30.603 41.929 21.699 66.495zm-166.794 29.997v-46.639c3.937-13.099 2.244-29.059-4.037-41.114 6.945.51 14.077-1.482 19.898-6.107l32.19-25.571 21.564 26.884c1.634 2.037 3.492 3.85 5.515 5.433l14.694 43.389c5.606 16.555 1.473 34.702-10.497 47.171-15.431 1.209-29.426 8.968-38.613 21.456l-45.137 12.618c2.939-12.259 4.423-24.818 4.423-37.52zm139.008-171.397 1.056 4.4c3.418 14.243-3.387 28.677-15.657 35.476-1.372-2.176-2.996-4.214-4.873-6.066l-14.71-14.515c2.996-7.634 9.505-13.373 17.634-15.324zm-69.5-43.31c7.023-1.687 14.47 1.491 18.104 7.728 2.233 3.833 6.725 5.739 11.031 4.676.039-.009.085-.021.134-.034 8.281-1.962 16.834-.594 24.094 3.856 3.557 2.18 6.59 4.975 9.001 8.229l-14.081 3.379c-11.8 2.832-21.677 10.135-27.859 20.076l-10.766-10.623c-5.318-5.247-11.705-8.8-18.472-10.678-1.62-1.938-2.781-4.223-3.378-6.715-2.125-8.846 3.345-17.771 12.192-19.894zm-77.525 92.299 41.153-40.748c8.81-8.723 23.155-8.735 31.981-.028l40.37 39.833c2.608 2.573 4.053 6.009 4.069 9.673s-1.399 7.112-3.984 9.708c-2.782 2.794-6.487 4.228-10.421 4.005-3.938-.211-7.466-2.021-9.934-5.098h.001l-27.792-34.648c-3.444-4.293-9.711-4.997-14.021-1.573l-39.984 31.762c-3.548 2.819-8.712 2.398-11.757-.959-3.113-3.429-2.972-8.668.319-11.927zm-38.003 6.043c11.635 4.126 19.989 15.243 19.989 28.275 0 2.223.741 4.382 2.105 6.137 4.575 5.886 6.775 15.382 5.903 23.874h-27.997zm7.402 216.709c-8.499 0-16.495-3.743-21.939-10.269s-7.693-15.064-6.169-23.425l19.086-104.728h27.64v38.079c0 16.635-2.904 32.987-8.632 48.602-1.293 3.523-.503 7.474 2.044 10.23 1.92 2.079 4.596 3.214 7.345 3.214.897 0 1.803-.121 2.692-.37l66.162-18.495c2.397-.67 4.458-2.209 5.78-4.317 5.977-9.53 16.146-15.298 27.324-15.578l59.353 11.783-18.994 30.16c-13.847 21.987-37.626 35.114-63.61 35.114zm162.517 0c3.087-11.505 13.606-20 26.073-20h19.579v20z"></path><path id="XMLID_795_" d="m369.16 354.998c2.63 0 5.21-1.07 7.069-2.93 1.87-1.87 2.931-4.441 2.931-7.08 0-2.63-1.061-5.2-2.931-7.07-1.859-1.86-4.43-2.93-7.069-2.93-2.63 0-5.21 1.07-7.07 2.93s-2.93 4.44-2.93 7.07c0 2.64 1.069 5.21 2.93 7.08 1.86 1.86 4.44 2.93 7.07 2.93z"></path>
</symbol>
<symbol id="icon-aqua" viewBox="0 0 512 512">
    <path d="m502 413.745h-54.581c5.299-7.574 8.421-16.779 8.421-26.704 0-23.428-17.523-43.343-40.761-46.325-5.465-.695-10.488 3.168-11.191 8.646-.702 5.478 3.169 10.488 8.647 11.191 13.286 1.704 23.306 13.091 23.306 26.487 0 14.725-11.979 26.704-26.704 26.704h-76.224v-20h24.928c5.522 0 10-4.477 10-10s-4.478-10-10-10h-64.507c-.063 0-.126.005-.189.005l16.615-26.381 13.515 1.734c.432.055.86.082 1.285.082 4.956 0 9.259-3.683 9.906-8.729.702-5.478-3.169-10.488-8.646-11.191l-10.523-1.35 13.663-37.696c12.038-33.213-.026-70.184-29.338-89.904l-12.16-8.181c13.407-12.391 19.948-31.499 15.412-50.397l-2.8-11.668c-6.165-25.689-30.527-42.352-56.086-39.58-8.811-9.844-22.633-14.399-35.785-11.242-19.57 4.697-31.671 24.439-26.975 44.01.149.621.332 1.229.512 1.838-7.082 1.821-13.781 5.461-19.314 10.94l-41.153 40.747c-2.269 2.247-4.08 4.781-5.444 7.483-8.089-5.631-17.907-8.942-28.488-8.942-5.523 0-10 4.477-10 10v79.303l-20.382 111.84c-2.397 13.154.708 26.56 8.518 37.28h-55.477c-5.523 0-10 4.477-10 10s4.477 10 10 10h492c5.522 0 10-4.477 10-10s-4.478-10-10-10zm-191.845-130.341-16.766 46.258-48.011-9.532c10.546-16.702 13.296-37.543 6.751-56.869l-10.135-29.926c7.923-.652 15.436-4.092 21.109-9.79 4.829-4.849 7.995-10.905 9.229-17.484l16.124 10.848c21.68 14.585 30.603 41.929 21.699 66.495zm-166.794 29.997v-46.639c3.937-13.099 2.244-29.059-4.037-41.114 6.945.51 14.077-1.482 19.898-6.107l32.19-25.571 21.564 26.884c1.634 2.037 3.492 3.85 5.515 5.433l14.694 43.389c5.606 16.555 1.473 34.702-10.497 47.171-15.431 1.209-29.426 8.968-38.613 21.456l-45.137 12.618c2.939-12.259 4.423-24.818 4.423-37.52zm139.008-171.397 1.056 4.4c3.418 14.243-3.387 28.677-15.657 35.476-1.372-2.176-2.996-4.214-4.873-6.066l-14.71-14.515c2.996-7.634 9.505-13.373 17.634-15.324zm-69.5-43.31c7.023-1.687 14.47 1.491 18.104 7.728 2.233 3.833 6.725 5.739 11.031 4.676.039-.009.085-.021.134-.034 8.281-1.962 16.834-.594 24.094 3.856 3.557 2.18 6.59 4.975 9.001 8.229l-14.081 3.379c-11.8 2.832-21.677 10.135-27.859 20.076l-10.766-10.623c-5.318-5.247-11.705-8.8-18.472-10.678-1.62-1.938-2.781-4.223-3.378-6.715-2.125-8.846 3.345-17.771 12.192-19.894zm-77.525 92.299 41.153-40.748c8.81-8.723 23.155-8.735 31.981-.028l40.37 39.833c2.608 2.573 4.053 6.009 4.069 9.673s-1.399 7.112-3.984 9.708c-2.782 2.794-6.487 4.228-10.421 4.005-3.938-.211-7.466-2.021-9.934-5.098h.001l-27.792-34.648c-3.444-4.293-9.711-4.997-14.021-1.573l-39.984 31.762c-3.548 2.819-8.712 2.398-11.757-.959-3.113-3.429-2.972-8.668.319-11.927zm-38.003 6.043c11.635 4.126 19.989 15.243 19.989 28.275 0 2.223.741 4.382 2.105 6.137 4.575 5.886 6.775 15.382 5.903 23.874h-27.997zm7.402 216.709c-8.499 0-16.495-3.743-21.939-10.269s-7.693-15.064-6.169-23.425l19.086-104.728h27.64v38.079c0 16.635-2.904 32.987-8.632 48.602-1.293 3.523-.503 7.474 2.044 10.23 1.92 2.079 4.596 3.214 7.345 3.214.897 0 1.803-.121 2.692-.37l66.162-18.495c2.397-.67 4.458-2.209 5.78-4.317 5.977-9.53 16.146-15.298 27.324-15.578l59.353 11.783-18.994 30.16c-13.847 21.987-37.626 35.114-63.61 35.114zm162.517 0c3.087-11.505 13.606-20 26.073-20h19.579v20z"></path><path id="XMLID_795_" d="m369.16 354.998c2.63 0 5.21-1.07 7.069-2.93 1.87-1.87 2.931-4.441 2.931-7.08 0-2.63-1.061-5.2-2.931-7.07-1.859-1.86-4.43-2.93-7.069-2.93-2.63 0-5.21 1.07-7.07 2.93s-2.93 4.44-2.93 7.07c0 2.64 1.069 5.21 2.93 7.08 1.86 1.86 4.44 2.93 7.07 2.93z"></path>
</symbol>
<symbol id="icon-gap" viewBox="0 0 512 512">
    <path d="M40,416H472a24.029,24.029,0,0,0,24-23.589C496.223,378.987,484.881,368,471.454,368h-102.2l61.635-72.842a165.967,165.967,0,0,0,13.293-18.091c.424-.517,9.226-16.034,12.46-23.576l7.268-16.962a64.477,64.477,0,0,0,3.27-40.812L459.3,164.2l10.174,3.391a8,8,0,0,0,8.187-1.932l8-8A8,8,0,0,0,488,152V128a8,8,0,0,0-4.422-7.156l-14.839-7.419L450.414,95.1A24.241,24.241,0,0,0,433.273,88h-1.026a24.191,24.191,0,0,0-18.035,8.062,33.735,33.735,0,0,0-19.156,7.152,33.322,33.322,0,0,0-10.7,15.368L376.41,141.47a8,8,0,0,0,.162,5.5L384,165.541V184a8,8,0,0,0,8,8h16v9.062l-7.805,1.115h0l-29.118,4.159A31.537,31.537,0,0,0,344,237.556v32.228L326.412,299.1l-78.664-78.664a42.451,42.451,0,0,0-64.562,5.343l-68.844,96.38L92.716,336.575,62.06,344.239A8,8,0,0,0,56,352v16H40.546C27.119,368,15.777,378.987,16,392.411A24.029,24.029,0,0,0,40,416ZM408,113.88v10.806l-5.975-5.975A17.727,17.727,0,0,1,408,113.88ZM400,176V164a8,8,0,0,0-.572-2.971l-6.911-17.279,2.979-8.94,12.5,12.5V176Zm2.927,61.277,4.834-19.337.045-.186.116-.519,9.21-1.316A8,8,0,0,0,424,208V112.247A8.256,8.256,0,0,1,432.247,104h1.026a8.186,8.186,0,0,1,5.827,2.413l19.243,19.244a7.986,7.986,0,0,0,2.079,1.5L472,132.944v15.742l-2.16,2.161-4.594-1.531-15.138-14.858a8,8,0,0,0-13.275,7.977l14.82,57.164a48.39,48.39,0,0,1-2.455,30.628l-7.268,16.961a150.1,150.1,0,0,1-8.5,16.812h-9.64a21.506,21.506,0,0,1-20.865-26.723ZM358.86,276.116A8.009,8.009,0,0,0,360,272V237.556a15.542,15.542,0,0,1,13.339-15.381l17.5-2.5-3.43,13.72a37.483,37.483,0,0,0,35.187,46.567c-1.279,1.647-2.58,3.274-3.922,4.859l-61.618,72.823L355.611,349a78.1,78.1,0,0,0-17.671-38.021ZM196.205,235.077a26.451,26.451,0,0,1,40.229-3.329l85.909,85.909a62.248,62.248,0,0,1,17.485,33.978L342.557,368H300L222.656,259.562a8,8,0,0,0-13.516.322L185.646,299.04,144,340.686l-13.551-13.551ZM280,368H147.1l3.893-11.679,46.664-46.664a8.05,8.05,0,0,0,1.2-1.541l17.495-29.16ZM72,358.246l25.94-6.485a7.983,7.983,0,0,0,2.5-1.105l18.542-12.362,15.867,15.867L130.234,368H72ZM40,384H472a8,8,0,0,1,0,16H40a8,8,0,0,1,0-16Z"></path><path d="M433.926,329.46l-8,9.334a8,8,0,1,0,12.148,10.412l8-9.333a8,8,0,1,0-12.148-10.413Z"></path><path d="M473.926,282.793l-24,28a8,8,0,0,0,12.148,10.414l24-28a8,8,0,0,0-12.148-10.414Z"></path>
</symbol>
<symbol id="icon-combat" viewBox="0 0 512 512">
    <path d="m503.804 167.956c-7.697-45.632-43.436-82-88.932-90.498-33.786-6.311-67.937-7.797-101.892-4.498-13.963-34.739-44.906-59.927-83.371-66.976-43.953-8.056-88.528-7.979-132.481.233-45.496 8.499-81.235 44.867-88.932 90.499-9.401 55.736-9.401 112.255 0 167.99 5.138 30.456 22.431 56.916 47.947 73.837v102.217h161.07v71.24h238.646v-102.217c25.515-16.921 42.808-43.381 47.947-73.837 9.399-55.735 9.399-112.254-.002-167.99zm-466.033 91.76c-8.843-52.424-8.843-105.586 0-158.011 5.614-33.281 31.681-59.806 64.864-66.004 40.336-7.534 81.239-7.605 121.568-.216 25.992 4.763 46.688 19.968 57.869 41.805-46.164 8.6-82.331 45.395-90.044 91.667-1.257 7.541-2.261 14.856-3.015 22.038l-9.106 3.43c-36.941 13.912-59.052 52.194-52.574 91.025 1.649 9.884 3.635 19.828 5.893 29.669h-58.025c-19.958-12.247-33.523-32.241-37.43-55.403zm144.259 133.545c9.889 7.613 20.456 13.496 31.182 17.506h-66.149v-57.951c8.66 15.428 20.653 29.425 34.967 40.445zm-95.895-48.149h30.934v65.654h-30.934zm161.07 71.4h116.555v65.495h-116.555zm146.548 65.495v-65.495h32.112v65.495zm80.476-151.05c-3.907 23.163-17.472 43.237-37.43 55.483h-183.853c-16.266 2.399-35.443-3.722-52.619-16.946-17.972-13.836-31.173-33.545-36.218-54.074-2.83-11.517-5.251-23.261-7.193-34.906-3.942-23.627 8.758-46.932 30.438-56.717.171 25.981 3.964 51.979 11.608 82.557l29.097-7.274c-11.945-47.783-13.693-81.715-6.447-125.192 5.66-33.955 32.258-60.945 66.186-67.163 40.331-7.391 81.233-7.318 121.568.216 33.183 6.198 59.25 32.723 64.864 66.004 8.842 52.426 8.842 105.588-.001 158.012z"></path>
</symbol>
<symbol id="icon-bici" viewBox="0 0 512 512">
    <path d="m252.738281 359.039062c4.140625 0 7.5-3.355468 7.5-7.5v-10.082031c0-4.140625-3.359375-7.5-7.5-7.5-4.144531 0-7.5 3.359375-7.5 7.5v10.082031c0 4.144532 3.355469 7.5 7.5 7.5zm0 0"></path><path d="m364.148438 359.039062c4.140624 0 7.5-3.355468 7.5-7.5v-10.082031c0-4.140625-3.359376-7.5-7.5-7.5-4.144532 0-7.5 3.359375-7.5 7.5v10.082031c0 4.144532 3.355468 7.5 7.5 7.5zm0 0"></path><path d="m308.441406 364.421875c7.523438 0 14.59375-3.152344 19.394532-8.648437 2.726562-3.117188 2.410156-7.855469-.710938-10.582032-3.117188-2.726562-7.855469-2.40625-10.582031.710938-1.953125 2.238281-4.90625 3.519531-8.101563 3.519531-3.195312 0-6.148437-1.28125-8.101562-3.519531-2.726563-3.117188-7.464844-3.4375-10.582032-.710938-3.121093 2.726563-3.4375 7.464844-.710937 10.582032 4.800781 5.496093 11.871094 8.648437 19.394531 8.648437zm0 0"></path><path d="m327.050781 40.765625c-14.742187 0-26.734375 11.996094-26.734375 26.738281 0 14.742188 11.992188 26.734375 26.734375 26.734375h20.054688c.6875 4.34375 1.800781 11.242188 3.605469 22.269531l-46.425782 47.464844c-2.898437 2.960938-2.84375 7.710938.117188 10.609375 2.960937 2.894531 7.707031 2.84375 10.605468-.121093l38.574219-39.4375 7.523438 45.074218-87.296875 89.667969-44.597656-7.578125 65.003906-66.464844c2.894531-2.960937 2.84375-7.710937-.117188-10.609375-2.960937-2.894531-7.710937-2.84375-10.605468.121094l-72.277344 73.894531-52.058594-8.847656c-5.097656-.867188-10.273438-1.308594-15.386719-1.308594-1.902343 0-3.800781.070313-5.691406.191406l-27-67.234374h15.789063c17.5 0 29.070312-18.648438 22.242187-34.417969-6.480469-15.054688-21.433594-25.113281-38.09375-25.625-23.003906-.707031-28.476563-3.625-34.269531-6.71875-7.511719-4.007813-15.8125-6.351563-24.414063-6.351563-27.941406 0-50.671875 22.746094-50.671875 50.703125 0 12.359375 10.054688 22.414063 22.410156 22.414063h29.382813l10.539063 26.246094h-12.777344c-3.03125-5.59375-8.925782-9.320313-15.671875-9.320313-.597657 0-1.207031.03125-1.804688.09375l-17.667969 1.777344c-9.796874.988281-16.964843 9.761719-15.9804682 19.558593 0 0 2.8515622 28.308594 2.8554682 28.347657.972657 9.644531 9.929688 16.945312 19.558594 15.980469l17.667969-1.78125c6.898437-.695313 12.476563-5.253907 14.839844-11.304688l26.394531.007812 6.722656 16.734376c-3.585937 2.804687-6.976562 5.886718-10.128906 9.230468-17.261719 18.316406-25.945312 42.265625-24.453125 67.441406 1.207031 20.386719 9.132813 38.875 21.515625 53.390626l-45.582031 46.609374h-2.382813c-13.757812 0-24.953125 11.195313-24.953125 24.957032v12.492187c0 9.257813 7.53125 16.789063 16.789063 16.789063h92.992187c9.257813 0 16.789063-7.53125 16.789063-16.789063v-12.492187c0-7.992188-3.78125-15.117188-9.644532-19.6875l19.65625-20.1875c1.699219.09375 3.40625.15625 5.128907.15625 3.140625 0 6.324219-.175782 9.476562-.5-.566406 4.25.132813 8.570312 2.0625 12.507812 3.714844 7.566406 11.261719 12.265625 19.695313 12.265625 3.367187 0 6.613281-.753906 9.652344-2.246093l52.898437-25.96875c3.539063-1.738282 6.460937-4.347657 8.582031-7.546876l79.871094-9.464843c19.492188 18.957031 45.039062 29.355469 72.375 29.355469 1.910156 0 3.832031-.0625 5.753906-.167969l1.089844 6.527343h-5.019531c-13.761719 0-24.957031 11.195313-24.957031 24.957032v12.492187c0 9.257813 7.535156 16.792969 16.792968 16.792969h92.988282c9.261718 0 16.792968-7.535156 16.792968-16.792969v-12.492187c0-13.761719-11.195312-24.957032-24.957031-24.957032h-12.429687l-4.449219-26.597656c11.238281-8.296875 20.839843-18.898437 27.933593-30.914062 2.105469-3.566406.925782-8.164063-2.640624-10.269532-3.566407-2.109374-8.167969-.925781-10.273438 2.640626-4.757812 8.054687-10.828125 15.371093-17.859375 21.578124l-24.921875-148.988281c32.949219 13.523438 55.082031 45.835938 55.082031 82.265625 0 6.617188-.730469 13.210938-2.167969 19.609375-.910156 4.039063 1.628907 8.050781 5.667969 8.960938 4.046875.910156 8.058594-1.628907 8.964844-5.667969 1.683594-7.476562 2.535156-15.179688 2.535156-22.902344 0-45.648437-29.742187-85.75-72.914062-99.207031l-8.640625-51.648437h21.933594c3.261718 5.703124 9.375 9.425781 16.289062 9.425781 1.039062 0 18.785156-2.878907 18.796875-2.882813 10.101563-1.691406 17.121094-11.523437 15.429687-21.628906 0 0-8.875-53.066406-8.886718-53.128906-1.679688-10.035156-11.59375-17.113282-21.628906-15.429688 0 0-15.667969 2.621094-15.683594 2.621094-6.910156 1.15625-12.707032 6.21875-14.816406 12.894531h-22.832032l-3.582031-21.433593h4.164063c24.207031 0 47.652343-8.683594 66.023437-24.449219l26.644531-22.875c11.1875-9.601563 12.476563-26.515625 2.875-37.703125-9.488281-11.050782-26.660156-12.351563-37.707031-2.871094l-26.644531 22.871094c-8.675782 7.449218-19.753906 11.550781-31.191406 11.550781zm-310.390625 118.753906c0-19.6875 16.003906-35.703125 35.675782-35.703125 6.125 0 11.972656 1.71875 17.351562 4.585938 7.058594 3.765625 14.359375 7.664062 40.867188 8.476562 10.867187.335938 20.59375 6.835938 24.78125 16.574219 2.675781 6.214844-1.484376 13.476563-8.46875 13.476563h-102.792969c-4.085938 0-7.414063-3.324219-7.414063-7.410157zm84.257813 100.351563-31.296875-77.9375h25.292968l27.921876 69.527344c-7.613282 1.835937-15.003907 4.671874-21.917969 8.410156zm-62.246094-11.960938-17.671875 1.78125c-1.59375.160156-2.972656-.992187-3.128906-2.558594l-2.855469-28.347656c-.15625-1.570312.992187-2.972656 2.558594-3.128906l17.667969-1.78125c.101562-.007812.203124-.015625.300781-.015625 1.464843 0 2.679687 1.105469 2.828125 2.574219l2.855468 28.347656c.160157 1.566406-.988281 2.972656-2.554687 3.128906zm36.710937-11.371094-19.910156-.007812-1.34375-13.351562h15.890625zm411.53125 233.363282v12.488281c0 .988281-.804687 1.792969-1.792968 1.792969h-92.988282c-.988281 0-1.792968-.804688-1.792968-1.792969v-12.488281c0-5.492188 4.464844-9.957032 9.957031-9.957032h76.660156c5.488281 0 9.957031 4.464844 9.957031 9.957032zm-62.625-174.558594-29.574218-5.027344c-8.679688-52.152344-27.339844-164.492187-32.445313-196.078125h28.378907zm-45.230468-7.6875-50.039063-8.503906c11.238281-14.03125 26.523438-24.414063 43.675781-29.621094zm33.785156 111.296875 28.214844-3.34375 8.253906 49.335937h-28.792969zm-48.613281-200.558594c1.820312 10.957031 3.816406 23.003907 6.015625 36.234375-23.425782 6.617188-44.007813 21.449219-57.777344 41.710938l-20.695312-3.519532zm-250.515625 283.996094c0 .988281-.800782 1.792969-1.789063 1.792969h-92.992187c-.988282 0-1.789063-.804688-1.789063-1.792969v-12.488281c0-5.492188 4.464844-9.957032 9.953125-9.957032h76.664063c5.410156 0 9.957031 4.550782 9.957031 9.957032v12.488281zm-10.449219-37.445313h-52.804687l35.234374-36.019531c10.132813 8.511719 22.125 14.789063 34.917969 18.199219zm40.589844-29.789062c-19.363281-.097656-38.492188-7.75-52.464844-21.300781-13.132813-12.738281-21.707031-30.21875-22.867187-49.796875-1.246094-21.007813 5.996093-40.988282 20.390624-56.265625 14.269532-15.136719 34.261719-23.820313 54.859376-23.820313 4.273437 0 8.601562.367188 12.871093 1.09375l270.261719 45.941406 11.675781 69.792969s-188.929687 22.382813-188.929687 22.382813c.117187-.015625-1-3.945313-1.117188-4.261719-4.4375-11.976563-18.738281-17.679687-30.21875-12.046875l-9.164062 4.496094-11.027344-16.621094c6.976562-9.992188 10.773438-21.941406 10.773438-34.210938 0-32.96875-26.820313-59.789062-59.789063-59.789062s-59.792969 26.820312-59.792969 59.789062c0 32.972657 26.824219 59.792969 59.792969 59.792969 4.214844 0 8.390625-.449219 12.480469-1.320312l7.863281 11.847656s-4.566406 2.25-4.835937 2.398437c-6.886719.816407-13.808594 1.933594-20.761719 1.898438zm45.113281-54.203125-21.585938-32.535156c-5.910156-8.90625-17.902343-12.289063-27.589843-7.730469-11.929688 5.613281-16.246094 20.984375-8.953125 31.976562l21.59375 32.542969c-1.105469.082031-2.210938.125-3.324219.125-24.695313 0-44.789063-20.09375-44.789063-44.792969 0-24.695312 20.09375-44.789062 44.789063-44.789062 24.699219 0 44.789063 20.09375 44.789063 44.789062.003906 7.140626-1.710938 14.136719-4.929688 20.414063zm-45.628906-16.582031c-2.113282-3.183594-1.242188-7.492188 1.9375-9.601563 3.113281-2.066406 7.542968-1.167969 9.605468 1.941407l40.691407 61.328124-12.542969 6.15625zm87.695312 68.40625s-52.753906 25.898437-52.902344 25.96875c-3.40625 1.671875-7.605468.226562-9.269531-3.164063-1.628906-3.3125-.148437-7.640625 3.164063-9.273437 0 0 52.824218-25.929688 52.902344-25.96875 7.992187-3.925782 14.105468 8.507812 6.105468 12.4375zm115.417969-5.957032 51.476563-6.097656 3.808593 22.800782c-20.179687.738281-39.402343-5.183594-55.285156-16.703126zm100.671875-287.695312c.570312-.796875 1.433594-1.378906 2.441406-1.550781l15.679688-2.621094c2.046875-.335937 4.019531 1.058594 4.359375 3.109375l8.886719 53.132812c.339843 2.03125-1.082032 4.015626-3.109376 4.355469l-15.683593 2.625c-2.082031.347657-4.015625-1.066406-4.355469-3.109375 0 0-8.835938-52.816406-8.890625-53.136718-.167969-1.011719.105469-2.011719.671875-2.804688zm-14.417969 11.546875 6.378907 38.128906h-20.753907l-6.378906-38.128906zm18.277344-90.074219s26.628906-22.859375 26.644531-22.875c4.859375-4.167968 12.382813-3.597656 16.550782 1.261719 4.214843 4.910156 3.652343 12.332031-1.257813 16.550781l-26.648437 22.871094c-15.648438 13.433594-35.625 20.832031-56.25 20.832031h-82.972657c-6.46875 0-11.734375-5.265625-11.734375-11.734375 0-6.472656 5.265625-11.738281 11.734375-11.738281h82.972657c15.019531 0 29.566406-5.386719 40.960937-15.167969zm0 0"></path>
</symbol>
<symbol id="icon-more" viewBox="0 0 512 512">
    <path d="m405.332031 192h-170.664062v-170.667969c0-11.773437-9.558594-21.332031-21.335938-21.332031-11.773437 0-21.332031 9.558594-21.332031 21.332031v170.667969h-170.667969c-11.773437 0-21.332031 9.558594-21.332031 21.332031 0 11.777344 9.558594 21.335938 21.332031 21.335938h170.667969v170.664062c0 11.777344 9.558594 21.335938 21.332031 21.335938 11.777344 0 21.335938-9.558594 21.335938-21.335938v-170.664062h170.664062c11.777344 0 21.335938-9.558594 21.335938-21.335938 0-11.773437-9.558594-21.332031-21.335938-21.332031zm0 0"></path>
</symbol>
<symbol id="icon-exw" viewBox="0 0 480 480">
    <path d="M336,0H168C121.188,0,64,110.746,64,240s57.188,240,104,240h168c51.961,0,80-123.652,80-240S387.961,0,336,0z M168,464
                c-12.209,0-28.496-14.457-43.74-40H160c1.578,0,3.125-0.469,4.438-1.344l24-16l-8.875-13.313L157.578,408h-42.004
                c-5.794-11.758-11.268-25.158-16.106-40H144c1.578,0,3.125-0.469,4.438-1.344l24-16l-8.875-13.313L141.578,352H96v4.663
                c-4.009-13.837-7.449-28.765-10.102-44.663H128c1.578,0,3.125-0.469,4.438-1.344l24-16l-8.875-13.313L125.578,296H83.547
                c-1.635-12.807-2.74-26.163-3.23-40H120c1.578,0,3.125-0.469,4.438-1.344l24-16l-8.875-13.313L117.578,240H80
                c0-13.795,0.659-27.128,1.817-40H120c1.578,0,3.125-0.469,4.438-1.344l24-16l-8.875-13.313L117.578,184H83.547
                c1.79-14.025,4.206-27.378,7.105-40H136c1.578,0,3.125-0.469,4.438-1.344l24-16l-8.875-13.313L133.578,128H94.673
                c4.008-14.547,8.645-27.928,13.668-40H152c1.578,0,3.125-0.469,4.438-1.344l24-16l-8.875-13.313L149.578,72h-34.004
                C133.053,36.53,153.432,16,168,16h137.734c-11.094,12.661-20.396,32.18-27.854,56h-43.458l-21.984-14.656l-8.875,13.313l24,16
                C228.875,87.531,230.422,88,232,88h41.307c-3.259,12.527-6.065,25.954-8.416,40h-38.469l-21.984-14.656l-8.875,13.313l24,16
                c1.313,0.875,2.859,1.344,4.438,1.344h38.432c-1.802,13-3.228,26.404-4.276,40h-39.734l-21.984-14.656l-8.875,13.313l24,16
                c1.313,0.875,2.859,1.344,4.438,1.344h41.112c-0.727,13.3-1.112,26.695-1.112,40h-37.578l-21.984-14.656l-8.875,13.313l24,16
                c1.313,0.875,2.859,1.344,4.438,1.344h40.196c0.293,13.384,0.941,26.779,1.96,40h-39.734l-21.984-14.656l-8.875,13.313l24,16
                c1.313,0.875,2.859,1.344,4.438,1.344h43.585c1.376,13.701,3.148,27.102,5.306,40h-38.469l-21.984-14.656l-8.875,13.313l24,16
                c1.313,0.875,2.859,1.344,4.438,1.344h43.806c2.851,14.267,6.22,27.694,10.074,40h-35.458l-21.984-14.656l-8.875,13.313l24,16
                c1.313,0.875,2.859,1.344,4.438,1.344h43.429c6.373,16.58,13.812,30.307,22.305,40H168z M336,464c-30.273,0-64-91.992-64-224
                s33.727-224,64-224s64,91.992,64,224S366.273,464,336,464z"></path>
                <path d="M336,120c-27.484,0-40,62.203-40,120s12.516,120,40,120s40-62.203,40-120S363.484,120,336,120z M336,344
                c-7.18,0-24-35.383-24-104s16.82-104,24-104s24,35.383,24,104S343.18,344,336,344z"></path>
</symbol>
<symbol id="icon-facebook" viewBox="0 0 32 32">
    <path d="M31.997 15.999c0-8.836-7.163-15.999-15.999-15.999s-15.999 7.163-15.999 15.999c0 7.985 5.851 14.604 13.499 15.804v-11.18h-4.062v-4.625h4.062v-3.525c0-4.010 2.389-6.225 6.043-6.225 1.75 0 3.581 0.313 3.581 0.313v3.937h-2.017c-1.987 0-2.607 1.233-2.607 2.498v3.001h4.437l-0.709 4.625h-3.728v11.18c7.649-1.2 13.499-7.819 13.499-15.804z"/>
</symbol>
<symbol id="icon-instagram" viewBox="0 0 32 32">
    <path d="M16 0c-4.347 0-4.889 0.020-6.596 0.096-1.704 0.080-2.864 0.348-3.884 0.744-1.052 0.408-1.945 0.956-2.835 1.845s-1.439 1.781-1.845 2.835c-0.396 1.020-0.665 2.18-0.744 3.884-0.080 1.707-0.096 2.249-0.096 6.596s0.020 4.889 0.096 6.596c0.080 1.703 0.348 2.864 0.744 3.884 0.408 1.051 0.956 1.945 1.845 2.835 0.889 0.888 1.781 1.439 2.835 1.845 1.021 0.395 2.181 0.665 3.884 0.744 1.707 0.080 2.249 0.096 6.596 0.096s4.889-0.020 6.596-0.096c1.703-0.080 2.864-0.349 3.884-0.744 1.051-0.408 1.945-0.957 2.835-1.845 0.888-0.889 1.439-1.78 1.845-2.835 0.395-1.020 0.665-2.181 0.744-3.884 0.080-1.707 0.096-2.249 0.096-6.596s-0.020-4.889-0.096-6.596c-0.080-1.703-0.349-2.865-0.744-3.884-0.408-1.052-0.957-1.945-1.845-2.835-0.889-0.889-1.78-1.439-2.835-1.845-1.020-0.396-2.181-0.665-3.884-0.744-1.707-0.080-2.249-0.096-6.596-0.096zM16 2.88c4.271 0 4.78 0.021 6.467 0.095 1.56 0.073 2.407 0.332 2.969 0.553 0.749 0.289 1.28 0.636 1.843 1.195 0.559 0.56 0.905 1.092 1.195 1.841 0.219 0.563 0.48 1.409 0.551 2.969 0.076 1.688 0.093 2.195 0.093 6.467s-0.020 4.78-0.099 6.467c-0.081 1.56-0.341 2.407-0.561 2.969-0.299 0.749-0.639 1.28-1.199 1.843-0.559 0.559-1.099 0.905-1.84 1.195-0.56 0.219-1.42 0.48-2.98 0.551-1.699 0.076-2.199 0.093-6.479 0.093-4.281 0-4.781-0.020-6.479-0.099-1.561-0.081-2.421-0.341-2.981-0.561-0.759-0.299-1.28-0.639-1.839-1.199-0.561-0.559-0.92-1.099-1.2-1.84-0.22-0.56-0.479-1.42-0.56-2.98-0.060-1.68-0.081-2.199-0.081-6.459 0-4.261 0.021-4.781 0.081-6.481 0.081-1.56 0.34-2.419 0.56-2.979 0.28-0.76 0.639-1.28 1.2-1.841 0.559-0.559 1.080-0.919 1.839-1.197 0.56-0.221 1.401-0.481 2.961-0.561 1.7-0.060 2.2-0.080 6.479-0.080zM16 7.784c-4.54 0-8.216 3.68-8.216 8.216 0 4.54 3.68 8.216 8.216 8.216 4.54 0 8.216-3.68 8.216-8.216 0-4.54-3.68-8.216-8.216-8.216zM16 21.333c-2.947 0-5.333-2.387-5.333-5.333s2.387-5.333 5.333-5.333 5.333 2.387 5.333 5.333-2.387 5.333-5.333 5.333zM26.461 7.46c0 1.060-0.861 1.92-1.92 1.92-1.060 0-1.92-0.861-1.92-1.92s0.861-1.919 1.92-1.919c1.057-0.001 1.92 0.86 1.92 1.919z"/>
</symbol>
<symbol id="icon-twitter" viewBox="0 0 32 32">
    <path d="M31.939 6.092c-1.18 0.519-2.44 0.872-3.767 1.033 1.352-0.815 2.392-2.099 2.884-3.631-1.268 0.74-2.673 1.279-4.169 1.579-1.195-1.279-2.897-2.079-4.788-2.079-3.623 0-6.56 2.937-6.56 6.556 0 0.52 0.060 1.020 0.169 1.499-5.453-0.257-10.287-2.876-13.521-6.835-0.569 0.963-0.888 2.081-0.888 3.3 0 2.28 1.16 4.284 2.917 5.461-1.076-0.035-2.088-0.331-2.971-0.821v0.081c0 3.18 2.257 5.832 5.261 6.436-0.551 0.148-1.132 0.228-1.728 0.228-0.419 0-0.82-0.040-1.221-0.115 0.841 2.604 3.26 4.503 6.139 4.556-2.24 1.759-5.079 2.807-8.136 2.807-0.52 0-1.039-0.031-1.56-0.089 2.919 1.859 6.357 2.945 10.076 2.945 12.072 0 18.665-9.995 18.665-18.648 0-0.279 0-0.56-0.020-0.84 1.281-0.919 2.4-2.080 3.28-3.397z"/>
</symbol>
<symbol id="icon-youtube" viewBox="0 0 32 32">
    <path d="M31.327 8.273c-0.386-1.353-1.431-2.398-2.756-2.777l-0.028-0.007c-2.493-0.668-12.528-0.668-12.528-0.668s-10.009-0.013-12.528 0.668c-1.353 0.386-2.398 1.431-2.777 2.756l-0.007 0.028c-0.443 2.281-0.696 4.903-0.696 7.585 0 0.054 0 0.109 0 0.163l-0-0.008c-0 0.037-0 0.082-0 0.126 0 2.682 0.253 5.304 0.737 7.845l-0.041-0.26c0.386 1.353 1.431 2.398 2.756 2.777l0.028 0.007c2.491 0.669 12.528 0.669 12.528 0.669s10.008 0 12.528-0.669c1.353-0.386 2.398-1.431 2.777-2.756l0.007-0.028c0.425-2.233 0.668-4.803 0.668-7.429 0-0.099-0-0.198-0.001-0.297l0 0.015c0.001-0.092 0.001-0.201 0.001-0.31 0-2.626-0.243-5.196-0.708-7.687l0.040 0.258zM12.812 20.801v-9.591l8.352 4.803z"/>
</symbol>
</defs>
</svg>